<?xml version="1.0" encoding="UTF-8"?>
<svg width="80px" height="80px" viewBox="0 0 80 80" version="1.1" xmlns="http://www.w3.org/2000/svg" xmlns:xlink="http://www.w3.org/1999/xlink">
    <title>Icon / Dream</title>
    <g id="Home" stroke="none" stroke-width="1" fill="none" fill-rule="evenodd">
        <g id="Home-R5" transform="translate(-280.000000, -3008.000000)">
            <g id="PRODUCT" transform="translate(152.000000, 2746.000000)">
                <g id="Products" transform="translate(0.000000, 202.000000)">
                    <g id="Card-/-Product" transform="translate(0.000000, 60.000000)">
                        <g id="Group" transform="translate(128.000000, 0.000000)">
                            <path d="M57.2492684,79.8083518 L22.5591913,79.8083518 C10.1000841,79.8083518 0,69.7082677 0,57.2491606 L0,22.5590834 C0,10.1003358 10.1000841,-0.00010784927 22.5591913,-0.00010784927 L57.2492684,-0.00010784927 C69.7083756,-0.00010784927 79.8084597,10.1003358 79.8084597,22.5590834 L79.8084597,57.2491606 C79.8084597,69.7082677 69.7083756,79.8083518 57.2492684,79.8083518" id="Fill-1" fill="#FF8A59"></path>
                            <path d="M0,26.8677296 C29.2603111,26.8677296 52.9808439,50.5879079 52.9808439,79.8485735 L0,79.8485735 L0,26.8677296 Z" id="Fill-4" fill="#FFDC00"></path>
                            <path d="M79.8978936,28.5706042 C64.1189217,28.5706042 51.3271854,15.7792147 51.3271854,-0.000104048612 L79.8978936,-0.000104048612 L79.8978936,28.5706042 Z" id="Fill-7" fill="#FF0DBC"></path>
                            <path d="M60,25.5553586 C60,28.6235489 57.5130493,31.1111111 54.4442475,31.1111111 C51.3758396,31.1111111 48.8888889,28.6235489 48.8888889,25.5553586 C48.8888889,22.4871683 51.3758396,20 54.4442475,20 C57.5130493,20 60,22.4871683 60,25.5553586" id="Fill-10" fill="#FF0DBC"></path>
                            <path d="M48.8888889,32.2222222 C48.8888889,34.0630009 47.3962474,35.5555556 45.5553617,35.5555556 C43.7144759,35.5555556 42.2222222,34.0630009 42.2222222,32.2222222 C42.2222222,30.3810558 43.7144759,28.8888889 45.5553617,28.8888889 C47.3962474,28.8888889 48.8888889,30.3810558 48.8888889,32.2222222" id="Fill-12" fill="#FF0DBC"></path>
                        </g>
                    </g>
                </g>
            </g>
        </g>
    </g>
</svg>